<svg width="24" height="24" viewBox="0 0 25 24" xmlns="http://www.w3.org/2000/svg">
<path d="M15.5912 1.79597C16.4853 1.3167 17.4697 1.03559 18.4789 0.970999C19.5283 1.00545 20.5459 1.34712 21.4084 1.95549C22.277 2.56819 22.9506 3.4249 23.3454 4.42093L23.3493 4.43076L23.3536 4.44042C24.612 7.26077 23.9411 10.6413 21.4358 13.4923L12.8661 22.8591C12.6684 23.0752 12.3281 23.0758 12.1296 22.8604L3.51341 13.513C1.0085 10.6518 0.336718 7.25989 1.58627 4.42797L1.58988 4.41978L1.5932 4.41148C1.99149 3.41361 2.66869 2.55596 3.54087 1.94314C4.4068 1.33472 5.42776 0.993698 6.48007 0.960439C7.49294 1.02791 8.48061 1.31134 9.37825 1.79239C10.2826 2.27703 11.0749 2.95127 11.7023 3.77057L11.7119 3.7831L11.7222 3.79499L12.1081 4.23805L12.4802 4.66525L12.8579 4.24295L13.2541 3.79989L13.2672 3.78519L13.2792 3.76949C13.9019 2.95166 14.6904 2.27881 15.5912 1.79597Z" stroke="black" fill="none"/>
</svg>
